<?xml version="1.0" encoding="UTF-8"?>
<svg id="Layer_1" data-name="Layer 1" xmlns="http://www.w3.org/2000/svg" viewBox="0 0 407.46 215.52">
  <defs>
    <style>
      .cls-1 {
        fill: #fff;
      }

      .cls-2 {
        fill: #cea655;
      }
    </style>
  </defs>
  <g>
    <path class="cls-1" d="M67.17,129.8c-.92,2.29-2.12,4.31-3.6,6.06-1.49,1.76-3.22,3.26-5.21,4.52-1.98,1.26-4,2.27-6.06,3.03-2.14.76-4.42,1.34-6.87,1.72-2.44.38-4.9.67-7.38.86-2.48.19-4.9.29-7.27.29h-6.18v10.76c0,1.3.02,2.5.06,3.6.04,1.11.06,2.31.06,3.6.07,2.44.15,4.54.23,6.29.08,1.76.5,3.2,1.26,4.35.61.99,1.79,1.98,3.55,2.98,1.75.99,4.19,1.56,7.32,1.72v1.14H.46v-1.14c1.91-.3,3.74-.76,5.49-1.37,1.75-.61,3.13-1.52,4.12-2.75.38-.46.69-1.14.92-2.06.23-.92.4-1.95.51-3.09.11-1.14.21-2.36.29-3.66.08-1.3.11-2.55.11-3.78,0-1.07.02-2.52.06-4.35.04-1.83.08-3.83.11-6.01.04-2.17.06-4.41.06-6.69v-28.95c0-1.37-.02-2.76-.06-4.18-.04-1.41-.11-2.75-.23-4s-.31-2.4-.57-3.43c-.27-1.03-.63-1.77-1.09-2.23-1.14-1.22-2.61-2.04-4.41-2.46-1.79-.42-3.72-.78-5.78-1.09v-1.14h2.75c1.45,0,3.15-.02,5.09-.06,1.95-.04,4.06-.06,6.35-.06s4.56-.02,6.81-.06c2.25-.04,4.37-.06,6.35-.06h5.15c5.03,0,9.5.25,13.39.74,3.89.5,7.55,1.7,10.98,3.6,3.36,1.83,6.14,4.42,8.35,7.78,2.21,3.36,3.32,7.32,3.32,11.9,0,2.82-.46,5.38-1.37,7.67ZM52.81,109.78c-2.25-3.43-5.21-6.03-8.87-7.78-1.83-.84-3.78-1.41-5.84-1.72-2.06-.3-4.2-.46-6.41-.46-1.6,0-2.84.06-3.72.17-.88.11-1.58.21-2.12.29-.08.46-.17.86-.29,1.2-.11.34-.21.78-.29,1.32-.08.54-.15,1.28-.23,2.23-.08.96-.15,2.31-.23,4.06-.08,2.67-.13,5.91-.17,9.73-.04,3.82-.06,7.55-.06,11.21v14.65c3.13,0,6.06-.09,8.81-.29,2.75-.19,5.3-.7,7.67-1.54,4.88-1.68,8.62-4.44,11.21-8.3,2.59-3.85,3.89-8.18,3.89-12.99,0-4.42-1.13-8.35-3.38-11.79Z"/>
    <path class="cls-1" d="M117.06,135.7c-.99,1.11-2.14,1.66-3.43,1.66-1.22,0-2.19-.21-2.92-.63-.73-.42-1.35-.9-1.89-1.43-.53-.53-1.11-1.01-1.72-1.43-.61-.42-1.45-.63-2.52-.63-.92,0-1.81.33-2.69.97-.88.65-1.7,1.47-2.46,2.46-.76.99-1.45,2.12-2.06,3.38-.61,1.26-1.14,2.46-1.6,3.6v32.95c.23.69.72,1.22,1.49,1.6.76.38,1.62.65,2.57.8.95.15,1.95.25,2.98.29,1.03.04,1.93.13,2.69.29v1.14h-25.63v-1.14c1.75-.15,3.26-.5,4.52-1.03,1.26-.53,1.89-1.41,1.89-2.63v-38.68c0-.61-.06-1.07-.17-1.37-.11-.3-.44-.65-.97-1.03-.69-.38-1.49-.86-2.4-1.43-.92-.57-1.83-1.05-2.75-1.43v-.69l14.99-5.84h.69l-.23,15.91h.23c.38-.92.99-2.25,1.83-4,.84-1.75,1.91-3.53,3.2-5.32,1.3-1.79,2.86-3.34,4.69-4.63,1.83-1.3,3.93-1.95,6.29-1.95,1.91,0,3.53.57,4.86,1.72,1.33,1.14,2,2.59,2,4.35s-.5,3.07-1.49,4.18Z"/>
    <path class="cls-1" d="M170.61,168.99c-1.07,2.1-2.52,4.02-4.35,5.78-1.83,1.76-4.02,3.2-6.58,4.35-2.56,1.14-5.4,1.72-8.52,1.72-3.89,0-7.44-.72-10.64-2.17-3.2-1.45-5.93-3.49-8.18-6.12-2.25-2.63-3.99-5.72-5.21-9.27-1.22-3.55-1.83-7.3-1.83-11.27,0-3.2.57-6.39,1.72-9.55,1.14-3.16,2.76-6.01,4.86-8.52,2.1-2.52,4.65-4.56,7.67-6.12,3.01-1.56,6.35-2.35,10.01-2.35,2.98,0,5.78.38,8.41,1.14,2.63.76,4.92,1.93,6.87,3.49,1.95,1.56,3.53,3.53,4.75,5.89,1.22,2.37,1.95,5.15,2.17,8.35h-36.73c0,.61-.04,1.32-.11,2.12-.08.8-.11,1.62-.11,2.46,0,3.2.46,6.28,1.37,9.21.92,2.94,2.25,5.53,4,7.78,1.75,2.25,3.97,4.02,6.64,5.32,2.67,1.3,5.76,1.95,9.27,1.95,3.81,0,7.15-.97,10.01-2.92,2.86-1.95,4.75-4.33,5.66-7.15l.92.23c-.31,1.68-.99,3.57-2.06,5.66ZM157.5,130.43c-1.95-2.02-4.56-3.03-7.84-3.03-2.14,0-4.06.63-5.78,1.89-1.72,1.26-3.2,2.73-4.46,4.41-1.26,1.68-2.23,3.38-2.92,5.09-.69,1.72-1.11,3.03-1.26,3.95h4.69c1.37,0,2.73-.02,4.06-.06,1.33-.04,2.73-.08,4.18-.12,1.45-.04,3.05-.06,4.81-.06,1.14,0,2.21-.04,3.2-.11.99-.08,1.87-.27,2.63-.57.53-.61.93-1.18,1.2-1.72.27-.53.4-1.33.4-2.4,0-2.82-.97-5.24-2.92-7.27Z"/>
    <path class="cls-1" d="M245.55,180.72v-1.26c2.06-.15,3.62-.4,4.69-.74,1.07-.34,1.6-1.12,1.6-2.35v-29.18c0-4.42-.79-7.95-2.36-10.58-1.57-2.63-4.35-3.95-8.34-3.95-2.53,0-4.64.67-6.33,2-1.69,1.33-3.45,3.03-5.29,5.09v36.96c0,.53.19.99.57,1.37.38.38.88.67,1.49.86.61.19,1.28.34,2,.46.72.11,1.43.21,2.12.29v1.03h-22.43v-1.26c2.06-.15,3.7-.4,4.92-.74,1.22-.34,1.83-1.12,1.83-2.35v-29.29c0-4.5-.78-8.03-2.35-10.58-1.56-2.55-4.33-3.83-8.3-3.83-2.52,0-4.58.53-6.18,1.6-1.6,1.07-3.4,2.67-5.38,4.81v37.53c.15.76.42,1.32.8,1.66.38.34.86.59,1.43.74.57.15,1.2.25,1.89.29.69.04,1.41.13,2.17.29v1.14h-22.2v-1.14c1.75-.15,3.26-.5,4.52-1.03,1.26-.53,1.89-1.41,1.89-2.63v-39.13c0-.61-.06-1.07-.17-1.37-.11-.3-.44-.65-.97-1.03-.69-.38-1.49-.82-2.4-1.32-.92-.5-1.83-.93-2.75-1.32v-.92l14.99-5.38h.69v12.36l.23.11c.76-1.37,1.75-2.8,2.96-4.29s2.62-2.82,4.22-4.01c1.59-1.18,3.32-2.17,5.19-2.97,1.86-.8,3.82-1.2,5.87-1.2,3.65,0,6.59,1.2,8.84,3.6,2.24,2.4,3.63,5.63,4.16,9.67h.34c.69-1.37,1.64-2.84,2.86-4.41,1.22-1.56,2.63-3.01,4.23-4.35,1.6-1.33,3.38-2.42,5.32-3.26,1.95-.84,3.95-1.26,6.01-1.26,4.42,0,7.76,1.6,10.01,4.81,2.25,3.2,3.38,7.32,3.38,12.36v34.1c0,.53.23.99.69,1.37.46.38,1.01.67,1.66.86.65.19,1.35.34,2.12.46.76.11,1.49.21,2.17.29v1.03h-22.43Z"/>
    <path class="cls-1" d="M277.25,180.72v-1.14c.92-.08,1.83-.17,2.75-.29.92-.11,1.73-.3,2.46-.57.72-.27,1.33-.63,1.83-1.09.5-.46.74-1.03.74-1.72v-39.25c0-.61-.06-1.14-.17-1.6-.11-.46-.44-.88-.97-1.26-.69-.46-1.51-.92-2.46-1.37-.96-.46-1.96-.88-3.03-1.26v-.69l15.45-5.04h.69v51.15c.15.76.48,1.32.97,1.66.5.34,1.09.59,1.77.74.69.15,1.43.25,2.23.29.8.04,1.58.13,2.35.29v1.14h-24.6ZM293.67,111.78c-1.18,1.18-2.65,1.77-4.41,1.77s-3.13-.61-4.35-1.83c-1.22-1.22-1.83-2.67-1.83-4.35s.59-3.2,1.77-4.35c1.18-1.14,2.65-1.72,4.41-1.72s3.22.57,4.41,1.72c1.18,1.14,1.77,2.59,1.77,4.35s-.59,3.22-1.77,4.41Z"/>
    <path class="cls-1" d="M357.46,168.99c-1.07,2.1-2.52,4.02-4.35,5.78-1.83,1.76-4.03,3.2-6.58,4.35-2.56,1.14-5.4,1.72-8.52,1.72-3.89,0-7.44-.72-10.64-2.17-3.2-1.45-5.93-3.49-8.18-6.12-2.25-2.63-3.99-5.72-5.21-9.27-1.22-3.55-1.83-7.3-1.83-11.27,0-3.2.57-6.39,1.72-9.55,1.14-3.16,2.76-6.01,4.86-8.52,2.1-2.52,4.65-4.56,7.67-6.12,3.01-1.56,6.35-2.35,10.01-2.35,2.97,0,5.78.38,8.41,1.14,2.63.76,4.92,1.93,6.87,3.49,1.95,1.56,3.53,3.53,4.75,5.89,1.22,2.37,1.94,5.15,2.17,8.35h-36.73c0,.61-.04,1.32-.11,2.12-.08.8-.12,1.62-.12,2.46,0,3.2.46,6.28,1.37,9.21.92,2.94,2.25,5.53,4,7.78,1.75,2.25,3.96,4.02,6.64,5.32,2.67,1.3,5.76,1.95,9.27,1.95,3.81,0,7.15-.97,10.01-2.92s4.75-4.33,5.66-7.15l.92.23c-.31,1.68-.99,3.57-2.06,5.66ZM344.36,130.43c-1.95-2.02-4.56-3.03-7.84-3.03-2.14,0-4.06.63-5.78,1.89-1.72,1.26-3.2,2.73-4.46,4.41-1.26,1.68-2.23,3.38-2.92,5.09-.69,1.72-1.11,3.03-1.26,3.95h4.69c1.37,0,2.73-.02,4.06-.06,1.33-.04,2.73-.08,4.18-.12,1.45-.04,3.05-.06,4.81-.06,1.14,0,2.21-.04,3.2-.11.99-.08,1.87-.27,2.63-.57.53-.61.93-1.18,1.2-1.72.27-.53.4-1.33.4-2.4,0-2.82-.97-5.24-2.92-7.27Z"/>
    <path class="cls-1" d="M405.98,135.7c-.99,1.11-2.14,1.66-3.43,1.66-1.22,0-2.19-.21-2.92-.63-.73-.42-1.36-.9-1.89-1.43-.53-.53-1.11-1.01-1.72-1.43-.61-.42-1.45-.63-2.52-.63-.92,0-1.81.33-2.69.97-.88.65-1.7,1.47-2.46,2.46-.76.99-1.45,2.12-2.06,3.38-.61,1.26-1.14,2.46-1.6,3.6v32.95c.23.69.72,1.22,1.49,1.6.76.38,1.62.65,2.57.8.95.15,1.95.25,2.98.29,1.03.04,1.93.13,2.69.29v1.14h-25.63v-1.14c1.75-.15,3.26-.5,4.52-1.03,1.26-.53,1.89-1.41,1.89-2.63v-38.68c0-.61-.06-1.07-.17-1.37-.11-.3-.44-.65-.97-1.03-.69-.38-1.49-.86-2.4-1.43-.92-.57-1.83-1.05-2.75-1.43v-.69l14.99-5.84h.69l-.23,15.91h.23c.38-.92.99-2.25,1.83-4,.84-1.75,1.91-3.53,3.2-5.32,1.3-1.79,2.86-3.34,4.69-4.63,1.83-1.3,3.93-1.95,6.29-1.95,1.91,0,3.53.57,4.86,1.72,1.33,1.14,2,2.59,2,4.35s-.5,3.07-1.49,4.18Z"/>
  </g>
  <g>
    <path class="cls-1" d="M22.33,215.22l-.07-1.17,1.63-.43,6.86-17.49,1.7-1.07,7.13,18.56,1.67.43-.1,1.17h-6.13l-.07-1.17,2.03-.43-2-5.13-.37-1-3.73-9.36.7-.63-3.66,10.03-.37,1-1.83,5.1,2.03.43-.07,1.17h-5.36ZM26.83,208.93v-1.63c.42.02,1.02.04,1.8.07.78.02,1.72.03,2.83.03s2.06-.01,2.85-.03c.79-.02,1.38-.04,1.78-.07v1.63c-.87-.02-1.69-.04-2.48-.05-.79-.01-1.5-.02-2.15-.02-.6,0-1.28,0-2.05.02-.77.01-1.63.03-2.58.05Z"/>
    <path class="cls-1" d="M63.69,215.22l-.07-1.17,1.9-.43c.02-.09.04-.26.07-.52.02-.25.04-.71.05-1.37s.02-1.58.02-2.78l.03-7.16c0-1.18-.01-2.08-.03-2.7-.02-.62-.04-1.05-.05-1.3-.01-.24-.03-.4-.05-.47l-2.03-.5.07-1.17h6.73c2.04,0,3.66.48,4.86,1.45,1.2.97,1.8,2.35,1.8,4.15,0,1.24-.32,2.32-.95,3.21s-1.47,1.59-2.5,2.07-2.15.72-3.35.72c-.51,0-.99-.03-1.45-.08-.46-.05-.87-.12-1.25-.18v-1.63c.58.16,1.06.26,1.45.32.39.06.77.08,1.15.08,1.38,0,2.45-.32,3.23-.97.78-.64,1.17-1.68,1.17-3.1,0-1.6-.43-2.78-1.28-3.53-.85-.75-1.9-1.13-3.15-1.13h-2c0,.13,0,.44-.02.93-.01.49-.02,1.07-.03,1.75-.01.68-.02,1.37-.02,2.08l.03,7.16c0,1.2.01,2.12.03,2.75.02.63.04,1.08.07,1.33.02.26.03.43.03.52l2.77.43-.07,1.23h-7.16Z"/>
    <path class="cls-1" d="M100.82,215.22l-.07-1.17,1.9-.43c.02-.09.04-.26.07-.52.02-.25.04-.71.05-1.37s.02-1.58.02-2.78l.03-7.16c0-1.18-.01-2.08-.03-2.7-.02-.62-.04-1.05-.05-1.3-.01-.24-.03-.4-.05-.47l-2.03-.5.07-1.17h6.73c2.04,0,3.66.48,4.86,1.45,1.2.97,1.8,2.35,1.8,4.15,0,1.24-.32,2.32-.95,3.21s-1.47,1.59-2.5,2.07-2.15.72-3.35.72c-.51,0-.99-.03-1.45-.08-.46-.05-.87-.12-1.25-.18v-1.63c.58.16,1.06.26,1.45.32.39.06.77.08,1.15.08,1.38,0,2.45-.32,3.23-.97.78-.64,1.17-1.68,1.17-3.1,0-1.6-.43-2.78-1.28-3.53-.85-.75-1.9-1.13-3.15-1.13h-2c0,.13,0,.44-.02.93-.01.49-.02,1.07-.03,1.75-.01.68-.02,1.37-.02,2.08l.03,7.16c0,1.2.01,2.12.03,2.75.02.63.04,1.08.07,1.33.02.26.03.43.03.52l2.77.43-.07,1.23h-7.16Z"/>
    <path class="cls-1" d="M151.37,215.36c-.24-.02-.52-.04-.83-.07-.31-.02-.62-.04-.93-.05-.31-.01-.61-.02-.9-.02h-10.86l-.07-1.17,2.03-.43c.02-.11.04-.35.07-.72.02-.37.04-.89.05-1.57.01-.68.02-1.53.02-2.55v-9.23c0-.67-.01-1.19-.03-1.57s-.06-.61-.1-.7l-2.03-.47.07-1.17h7.36l.07,1.23-2.77.4c-.04.07-.08.27-.1.62-.02.34-.04.86-.05,1.53s-.02,1.57-.02,2.68v6.66c0,1.11,0,2.1.02,2.98.01.88.03,1.43.05,1.65.29.02.59.04.9.07.31.02.65.03,1.03.03h2.9c.49,0,.91-.01,1.27-.03.35-.02.72-.05,1.1-.1l1.7-3.17,1.37.3-1.3,4.83Z"/>
    <path class="cls-1" d="M175,215.22l-.07-1.17,2-.43c.04-.11.07-.35.08-.73.01-.38.02-.9.03-1.58.01-.68.02-1.52.02-2.51v-6.66c0-1.02,0-1.88-.02-2.57s-.02-1.22-.03-1.6c-.01-.38-.04-.61-.08-.7l-2-.43.07-1.17h6.56l.07,1.17-2.03.43c-.02.07-.05.27-.08.6-.03.33-.06.84-.07,1.52-.01.68-.02,1.59-.02,2.75v6.66c0,1.11,0,2.01.02,2.7.01.69.03,1.19.07,1.52.03.32.06.53.08.62l2.03.43-.07,1.17h-6.56Z"/>
    <path class="cls-1" d="M203.9,215.22l-.07-1.17,1.63-.43,6.86-17.49,1.7-1.07,7.13,18.56,1.67.43-.1,1.17h-6.13l-.07-1.17,2.03-.43-2-5.13-.37-1-3.73-9.36.7-.63-3.66,10.03-.37,1-1.83,5.1,2.03.43-.07,1.17h-5.36ZM208.4,208.93v-1.63c.42.02,1.02.04,1.8.07.78.02,1.72.03,2.83.03s2.06-.01,2.85-.03c.79-.02,1.38-.04,1.78-.07v1.63c-.87-.02-1.69-.04-2.48-.05-.79-.01-1.5-.02-2.15-.02-.6,0-1.28,0-2.05.02-.77.01-1.63.03-2.58.05Z"/>
    <path class="cls-1" d="M260.12,210.89v-8.16c0-1.38-.01-2.45-.03-3.21-.02-.77-.04-1.32-.07-1.67-.02-.34-.04-.54-.07-.58l-2.23-.43.07-1.17h6.13l.1,1.17-2.03.43s-.02.24-.05.58c-.03.34-.06.91-.08,1.68-.02.78-.03,1.84-.03,3.2v10.38c0,.72.01,1.47.03,2.25h-1.33l-11.96-16.79h.43v9.59c0,1.35.02,2.42.05,3.2.03.78.07,1.33.1,1.67.03.33.05.53.05.6l2.27.43-.1,1.17h-6.2l-.1-1.17,2.03-.43c.02-.07.04-.26.07-.58.02-.32.04-.87.07-1.65s.03-1.85.03-3.23v-6.06c0-1.11,0-1.99-.02-2.63s-.03-1.13-.05-1.47c-.02-.33-.06-.58-.1-.73l-2.03-.43.1-1.17h4.36l10.99,15.22h-.4Z"/>
    <path class="cls-1" d="M298.34,215.52c-1.84,0-3.55-.37-5.13-1.1-1.58-.73-2.85-1.84-3.81-3.33-.97-1.49-1.45-3.34-1.45-5.56,0-1.33.23-2.61.7-3.83.47-1.22,1.15-2.3,2.07-3.25.91-.94,2.04-1.69,3.38-2.25,1.34-.55,2.89-.83,4.65-.83.87,0,1.81.08,2.83.25,1.02.17,1.94.42,2.77.75l.23,4.43-1.33.13-.97-3.07c-.42-.31-1.01-.54-1.75-.7-.75-.16-1.44-.23-2.08-.23-1.78,0-3.22.38-4.33,1.13s-1.92,1.75-2.42,2.98-.75,2.56-.75,3.98c0,1.93.34,3.56,1.02,4.88s1.59,2.32,2.75,3c1.15.68,2.44,1.02,3.86,1.02.75,0,1.41-.08,1.97-.23.55-.16,1.12-.38,1.7-.67l1.57-3.16,1.33.13-.93,4.13c-.8.38-1.69.71-2.68.98-.99.28-2.05.42-3.18.42Z"/>
    <path class="cls-1" d="M342.47,215.39c-.67-.09-1.19-.14-1.57-.15-.38-.01-.75-.02-1.13-.02h-11.43l-.07-1.17,2-.43c.04-.11.07-.35.08-.73.01-.38.02-.91.03-1.6.01-.69.02-1.52.02-2.5v-6.66c0-1,0-1.85-.02-2.55-.01-.7-.02-1.24-.03-1.62-.01-.38-.04-.61-.08-.7l-2-.43.07-1.17h11.63c.27,0,.56-.01.88-.03.32-.02.72-.05,1.18-.1l.6,4.26-1.4.2-1.07-2.73c-.13-.04-.31-.07-.53-.08-.22-.01-.46-.02-.7-.02h-4.13c-.42,0-.78,0-1.08.02-.3.01-.61.04-.92.08,0,.09,0,.34-.02.75-.01.41-.02.88-.03,1.42-.01.53-.02,1.03-.02,1.5v9.56c0,.38,0,.78.02,1.2.01.42.02.8.03,1.15.01.34.02.57.02.68.29.02.59.04.9.07.31.02.64.03,1,.03h3.63c.47,0,.86,0,1.18-.02.32-.01.58-.03.77-.05.19-.02.33-.04.42-.07l1.73-3.1,1.37.27-1.33,4.73ZM338.94,208.36l-.43-2.3c-.11-.04-.29-.08-.53-.1-.24-.02-.54-.03-.9-.03h-2.73c-.27,0-.57.01-.92.03-.34.02-.72.04-1.12.07v-1.7c.4.02.77.04,1.12.05.34.01.65.02.92.02h2.73c.36,0,.66-.01.9-.03.24-.02.42-.04.53-.07l.43-2.33h1.3v6.4h-1.3Z"/>
    <path class="cls-1" d="M372.8,215.52c-.96,0-1.94-.12-2.95-.35s-1.83-.53-2.45-.88l-.17-4.13,1.23-.13.87,2.83c.55.36,1.17.63,1.83.83.67.2,1.39.3,2.17.3,1.11,0,2.02-.28,2.72-.83.7-.55,1.05-1.32,1.05-2.3,0-.8-.23-1.46-.7-1.98-.47-.52-1.07-.98-1.82-1.38-.74-.4-1.53-.79-2.37-1.18-.83-.39-1.62-.82-2.37-1.3s-1.35-1.07-1.83-1.77c-.48-.7-.72-1.56-.72-2.58s.29-1.97.88-2.77c.59-.8,1.39-1.43,2.42-1.88s2.19-.68,3.5-.68c.6,0,1.16.03,1.68.08.52.06,1.01.14,1.47.25s.86.24,1.22.4l.23,3.96-1.23.13-.9-2.67c-.69-.47-1.63-.7-2.83-.7s-2.12.29-2.83.87c-.71.58-1.07,1.32-1.07,2.23,0,.82.24,1.51.72,2.07.48.56,1.09,1.04,1.83,1.45.74.41,1.53.81,2.37,1.2.83.39,1.62.82,2.37,1.3.74.48,1.35,1.05,1.83,1.72.48.67.72,1.49.72,2.46,0,1.04-.29,1.98-.88,2.8-.59.82-1.4,1.47-2.43,1.93-1.03.47-2.22.7-3.55.7Z"/>
  </g>
  <g>
    <path class="cls-2" d="M259.87,99.99c-.84,0-2.05-.21-3.63-.62-1.58-.41-3.11-1.01-4.58-1.79-1.48-.78-2.42-1.69-2.84-2.72-.74-1.76-1.5-3.6-2.29-5.52-.79-1.92-1.61-3.86-2.45-5.84l-24.81-60.97c.37,2.04.56,4.19.56,6.43,0,3.59-.76,7.43-2.26,11.43-1.17,3.1-2.79,6.07-4.83,8.86l3.85,9.98-.32.62c-4.85.31-9.16.47-12.95.47-1.3,0-2.59-.02-3.87-.06-4.44,2.11-9.55,3.19-15.21,3.19-1.65,0-3.17-.12-4.59-.33l-8.06,19.21c.02,7.82.61,10.95,1.01,12.16.11.11.54.5,1.69,1.01,1.45.65,3.04,1.14,4.73,1.46.12.02.21.04.32.06-.76-.73-1.14-1.6-1.14-2.61,0-.72.24-1.95.71-3.66.47-1.71,1.24-3.86,2.29-6.46l6-14.47c0-.41.32-.62.95-.62,6.32-.31,12.32-.47,18.01-.47,2.84,0,5.4.03,7.66.08,2.26.05,4.24.13,5.92.23.32,0,.68.21,1.11.62l5.53,14.47c.95,2.59,1.68,4.77,2.21,6.54.53,1.77.79,3.17.79,4.2,0,.73-.16,1.4-.47,2.02-.42.83-1.74,1.56-3.95,2.18-2.21.62-3.95.93-5.21.93-.42,0-.63.73-.63,2.18,0,1.56.21,2.54.63,2.96l20.54-.93,19.91.93c.21-.42.32-1.19.32-2.33,0-1.87-.21-2.8-.63-2.8Z"/>
    <path class="cls-2" d="M182.63,100.29c-.86,0-2.24-.18-4.17-.55-1.92-.37-3.71-.92-5.37-1.66-1.66-.74-2.7-1.53-3.13-2.37-.86-2.21-1.28-6.8-1.28-13.76V25.47c0-5.17.08-9.33.24-12.5.16-3.16.72-4.8,1.68-4.9,2.56-.74,6.3-1.11,11.22-1.11,6.95,0,12.07,2.19,15.39,6.56,3.31,4.38,4.97,10.31,4.97,17.8,0,4.01-.88,7.73-2.64,11.15-1.76,3.43-4.11,6.17-7.05,8.23-2.94,2.06-6.23,3.08-9.86,3.08-3.85,0-7.43-.58-10.74-1.74-.11-.21-.27-.05-.48.47-.32,1.69-.16,2.9.48,3.64,2.24,2.95,6.36,4.43,12.34,4.43,5.34,0,10.07-1,14.19-3.01,4.11-2,7.53-4.61,10.26-7.83,2.73-3.22,4.78-6.67,6.17-10.36,1.39-3.69,2.08-7.17,2.08-10.44,0-5.17-1.04-9.7-3.13-13.6-2.08-3.9-4.84-6.91-8.25-9.02-3.31-2.11-6.79-3.69-10.42-4.75-3.63-1.05-7.21-1.58-10.74-1.58-1.5,0-3.21.03-5.13.08-1.92.05-3.95.13-6.09.24-2.14.11-4.17.19-6.09.24-1.92.05-3.69.08-5.29.08l-19.23-.32c-.43.42-.64,1.32-.64,2.69,0,1.27.21,1.9.64,1.9.96,0,2.27.16,3.93.47,1.66.32,3.21.74,4.65,1.27,1.44.53,2.27,1.11,2.48,1.74.43,1.37.72,3.22.88,5.54.16,2.32.24,5.01.24,8.07v59.79c0,8.75-.38,13.71-1.12,14.87-.32.63-1.2,1.19-2.65,1.66-1.44.47-2.94.87-4.49,1.19-1.55.32-2.86.47-3.93.47-.32,0-.48.69-.48,2.06,0,1.58.16,2.53.48,2.85l19.55-.79c1.6,0,4.14.08,7.61.24,3.47.16,7.88.34,13.22.55.21-.84.32-1.63.32-2.37,0-1.48-.22-2.21-.64-2.21Z"/>
  </g>
</svg>